# xmcd CD database file
#
# Track frame offsets:
#	150
#	5672
#	8677
#	11855
#	14855
#	18007
#	24650
#	30527
#	36682
#	41342
#	47047
#	51567
#	56955
#	61680
#	68785
#	72237
#	78492
#	81707
#	84950
#	88655
#	93460
#	98422
#	101825
#	105877
#	110997
#	115472
#	119542
#	122142
#	128860
#	131560
#
# Disc length: 1813 seconds
#
# Revision: 0
# Processed by: cddbd v1.5PL3 Copyright (c) Steve Scherf et al.
# Submitted via: CdAid (MTCDDB.DLL V2003.12.21)
#
DISCID=a307131e
DTITLE=Various Artist - Hooked On Country 70 Non-Stop Hits
DYEAR=1992
DGENRE=Country
TTITLE0=Hello I love you
TTITLE1=Sundown
TTITLE2=Woman Beautiful Woman
TTITLE3=Ruby, Dont Take Your Love To Town
TTITLE4=Gentle On My Mind
TTITLE5=Jolene
TTITLE6=Let Your Love Flow
TTITLE7=Rhinestone Cowboy
TTITLE8=Oh Lonesome Me
TTITLE9=Half The Way
TTITLE10=Down The Mississippi
TTITLE11=Mississippi
TTITLE12=Wolverton Mountain
TTITLE13=Coward Of The County
TTITLE14=Some Broken Hearts Never Mend
TTITLE15=Take Me Home Country Roads
TTITLE16=All I Ever Need Is You
TTITLE17=Heaven Is My Woman's Love
TTITLE18=You Ask Me To
TTITLE19=Before The Next Teardrop Falls
TTITLE20=Banks Of The Ohio
TTITLE21=If You Love Me Let Me Know
TTITLE22=You're My Best Friend
TTITLE23=I Recall A Gypsy Woman
TTITLE24=The Shelter Of Your Eyes
TTITLE25=Silver Threads And Golden Needles
TTITLE26=Honey Come Back
TTITLE27=The Most Beautiful Girl
TTITLE28=untitled
TTITLE29=untitled
EXTD=ID3G:   2 YEAR: 1992
EXTT0=
EXTT1=
EXTT2=
EXTT3=
EXTT4=
EXTT5=
EXTT6=
EXTT7=
EXTT8=
EXTT9=
EXTT10=
EXTT11=
EXTT12=
EXTT13=
EXTT14=
EXTT15=
EXTT16=
EXTT17=
EXTT18=
EXTT19=
EXTT20=
EXTT21=
EXTT22=
EXTT23=
EXTT24=
EXTT25=
EXTT26=
EXTT27=
EXTT28=
EXTT29=
PLAYORDER=
